<svg version="1" xmlns="http://www.w3.org/2000/svg" width="933.333" height="933.333" viewBox="0 0 700.000000 700.000000"><path d="M690.7.6c-.1.1-3.8.5-8.2.8-10.4.9-20.3 1.9-28.5 3.1-1.4.2-5.2.6-8.5 1-3.2.4-6.6.8-7.5 1-.8.1-4 .6-7.1.9-3.1.4-6.7.9-8 1.1-1.3.3-4.1.7-6.4 1-4.1.6-7.2 1.1-12.7 2-1.8.3-4.6.8-6.3 1.1-8.5 1.3-16.6 2.9-32.5 6-9.6 1.9-18.4 3.7-19.5 4-1.1.2-2.9.6-4 .8-1.1.3-5.2 1.1-9.2 2-9.3 2-51.8 12.9-60.8 15.6-3.8 1.2-7.4 2.2-8 2.4-21.7 5.4-81.6 27.5-110.6 40.8-22.2 10.1-57.9 29-69.7 36.9-2.4 1.6-4.5 2.9-4.8 2.9-.5 0-26.4 17.3-28.9 19.2-.5.5-6.6 5.2-13.5 10.4-42.4 32.6-75.9 70.8-99.8 113.7-4 7.1-7.2 13-7.2 13.3 0 .2-1.8 4.1-4 8.7-8.1 17.2-18 46.4-21.6 64.2-.3 1.6-2.8 14.6-3.9 20.5-.1.8-.6 4-.9 7.1-.4 3.1-.8 6.5-1 7.5-.2 1.1-.7 5.3-1.1 9.4-.3 4.1-.8 8.6-1 10-.4 2.4-1.4 13.1-2 21.8-.2 2.3-.6 7.3-.9 11-1 11.4-1.9 26.3-3.2 50.1-.5 9.5-.3 11.3.8 10.4.7-.6 56.3-56.1 123.6-123.2C281 311 337.4 255.3 339 254.5c4-2.1 11.9-2.6 16.7-1.2 2.1.6 5.8 3.2 8.4 5.8 3.8 3.7 4.9 5.7 6 10.3 1.1 5 1 6.4-.5 11.1-1.6 5.3-7.4 11.2-182.5 186.1C33 620.4 5.8 648 3.4 652.8 1 657.7.6 659.7.6 667c0 6.5.5 9.6 2.1 13.2 3 6.6 9.6 13.3 16.2 16.5 4.8 2.3 6.8 2.7 14.1 2.7 14.1-.1 12.9.8 60-46l41.5-41.2h10c11.8.1 52.4-1.1 61-1.7 3.3-.2 11.2-.7 17.5-1 6.3-.4 13.3-.8 15.5-1 2.2-.2 8.1-.6 13-.9 5-.4 11-.8 13.5-1.1 2.5-.2 7.2-.7 10.5-1 18.8-1.9 25.5-2.5 29-3 1.7-.2 5.3-.7 8-1 7.3-.9 11.5-1.5 13.9-2 1.2-.2 3.7-.7 5.6-.9 6-.9 18.1-3.6 28-6.2 5.2-1.5 10-2.7 10.5-2.9.6-.1 1.7-.5 2.5-.8.8-.3 5.1-1.8 9.5-3.3 23-7.7 50-21.1 72.7-36.1 8.6-5.7 14.1-9.6 14.8-10.4.3-.3 3-2.4 6-4.6 3-2.3 6.9-5.3 8.5-6.7l3-2.5-68.5-.1-68.5-.2 100-33.4c78.2-26.1 100.4-33.9 101.8-35.6 2.4-3.1 27.7-40.7 27.7-41.2 0-.2 2.7-5 6-10.5 3.3-5.6 6-10.2 6-10.4 0-.1-24.5-.2-54.5-.1s-54.5-.2-54.5-.5c.1-.3 32.4-16.7 71.9-36.4l71.8-35.7 2.3-5.8c11-28.2 24.6-67.2 27.5-79.2.2-.8 1.5-5.3 2.9-10 2.4-8.1 6.3-22.7 7.1-26.1.2-.9.8-3.3 1.4-5.5 1.7-6.1 7.8-32.3 10.1-43.2 2.4-11.4 2.2-10.8 5.5-27.7 2.7-14.3 2.5-13.5 5.5-32 1.1-7.2 2.3-14.6 2.6-16.5.3-1.9.8-4.7 1-6.3.1-1.5.8-6.3 1.4-10.7 1.4-10.6 1.6-12.2 2.5-21 .4-4.1.9-8.3 1.1-9.4.4-2.2 1.7-18.7 1.8-23.6.1-3.4 0-3.5-4.2-3.5-2.3-.1-4.3 0-4.5.1z"/></svg>